#!OML:ASF H:\Male1\Project 1\Capture day 1\Session 1\Male1.ASF
:FULLY-SPECIFIED
:DEGREES
563
root 8.18105 15.5949 4.17092 183.244 6.36552 -179.627
lowerback 12.9936 1.39623 -3.04604
upperback 4.67617 1.99774 -1.84822
thorax -2.39197 1.2341 -0.514575
lowerneck -2.88171 7.03908 12.3574
upperneck -8.59402 9.13927 -10.4334
head -1.01133 4.64543 -5.07255
rclavicle 2.34566e-014 -4.77083e-015
rhumerus 16.6736 8.98394 -76.3478
rradius 123.005
rwrist -18.0839
rhand -40.3737 37.0431
rfingers 7.12502
rthumb -13.328 7.48932
lclavicle 2.34566e-014 -4.77083e-015
lhumerus 16.1708 5.8225 82.1994
lradius 130.992
lwrist 14.7566
lhand -48.7922 -21.4387
lfingers 7.12502
lthumb -21.4295 7.39611
rfemur -8.12483 20.7615 18.1995
rtibia 19.364
rfoot -31.1674 -34.7494
rtoes -7.06354
lfemur -8.79417 -18.3708 -15.781
ltibia 20.3728
lfoot -18.9504 29.5621
ltoes -12.051
564
root 8.19363 15.5881 4.14479 182.887 6.28182 -179.568
lowerback 12.3681 1.32463 -2.83904
upperback 4.54386 1.91222 -1.79306
thorax -2.18822 1.17473 -0.541949
lowerneck -3.0351 7.15458 12.4067
upperneck -7.7149 9.25263 -10.3702
head -0.715888 4.6751 -5.02233
rclavicle -1.72943e-014 -9.54166e-015
rhumerus 16.6163 11.8621 -77.278
rradius 121.798
rwrist -18.459
rhand -40.5569 35.5205
rfingers 7.12502
rthumb -13.5046 5.97841
lclavicle -1.72943e-014 -9.54166e-015
lhumerus 15.716 3.71153 83.8875
lradius 130.624
lwrist 14.9522
lhand -48.881 -20.9464
lfingers 7.12502
lthumb -21.5147 7.87872
rfemur -7.42075 21.2292 18.5295
rtibia 19.2425
rfoot -31.9935 -34.9005
rtoes -6.26038
lfemur -8.15192 -18.9231 -15.8732
ltibia 20.2291
lfoot -19.4556 29.8818
ltoes -11.3804
565
root 8.20749 15.5829 4.1211 182.559 6.22355 -179.49
lowerback 11.7822 1.27515 -2.61091
upperback 4.41739 1.85733 -1.7446
thorax -1.99831 1.13238 -0.595087
lowerneck -3.12987 7.2519 12.5529
upperneck -6.92904 9.34733 -10.4315
head -0.447822 4.69997 -5.03155
rclavicle -1.53064e-014 1.19271e-014
rhumerus 16.435 15.0176 -78.275
rradius 120.573
rwrist -18.9068
rhand -40.5079 33.7445
rfingers 7.12502
rthumb -13.4574 4.19925
lclavicle -1.53064e-014 1.19271e-014
lhumerus 15.0547 1.03627 85.4088
lradius 130.167
lwrist 15.1111
lhand -48.5781 -20.1679
lfingers 7.12502
lthumb -21.2238 8.69021
rfemur -6.80395 21.5652 18.8761
rtibia 19.1862
rfoot -32.6726 -34.9704
rtoes -5.60609
lfemur -7.558 -19.3497 -15.9315
ltibia 20.1068
lfoot -19.9478 30.1053
ltoes -10.6067
566
root 8.22218 15.5773 4.09864 182.224 6.21114 -179.451
lowerback 11.2598 1.25656 -2.42522
upperback 4.29898 1.83856 -1.71461
thorax -1.83423 1.11024 -0.651086
lowerneck -3.25255 7.34596 12.7029
upperneck -6.13634 9.4406 -10.4966
head -0.173057 4.72564 -5.04191
rclavicle 3.06128e-014 -5.40694e-014
rhumerus 16.1381 18.4273 -79.3613
rradius 119.323
rwrist -19.4223
rhand -40.0865 31.7068
rfingers 7.12502
rthumb -13.0512 2.13513
lclavicle 3.06128e-014 -5.40694e-014
lhumerus 14.2092 -2.21246 86.7369
lradius 129.576
lwrist 15.1657
lhand -47.8828 -18.9097
lfingers 7.12502
lthumb -20.5558 10.022
rfemur -6.24809 21.8653 19.1839
rtibia 19.2099
rfoot -33.2725 -35.0057
rtoes -5.09455
lfemur -6.94535 -19.7676 -16.0441
ltibia 19.9726
lfoot -20.4987 30.3278
ltoes -9.61948
567
root 8.23731 15.57 4.07646 181.868 6.2515 -179.488
lowerback 10.8061 1.26483 -2.31563
upperback 4.18975 1.84854 -1.71399
thorax -1.69827 1.10468 -0.700754
lowerneck -3.39469 7.43633 12.836
upperneck -5.34347 9.53334 -10.5363
head 0.102589 4.75259 -5.04194
rclavicle -3.57812e-015 -3.26007e-014
rhumerus 15.7548 22.0574 -80.5521
rradius 118.039
rwrist -20.0227
rhand -39.1403 29.4359
rfingers 7.12502
rthumb -12.1389 -0.191978
lclavicle -3.57812e-015 -3.26007e-014
lhumerus 13.2317 -6.00381 87.8336
lradius 128.813
lwrist 15.1018
lhand -46.6988 -17.2102
lfingers 7.12502
lthumb -19.4177 11.8402
rfemur -5.74131 22.144 19.4166
rtibia 19.324
rfoot -33.8016 -35.0129
rtoes -4.77729
lfemur -6.28067 -20.2278 -16.2622
ltibia 19.8101
lfoot -21.1219 30.5935
ltoes -8.45012
568
root 8.25243 15.5613 4.05391 181.493 6.3391 -179.604
lowerback 10.4065 1.28979 -2.28231
upperback 4.09204 1.87533 -1.74288
thorax -1.58014 1.10944 -0.741622
lowerneck -3.57685 7.52586 12.9099
upperneck -4.53737 9.62863 -10.4974
head 0.381517 4.78214 -5.00768
rclavicle 2.0276e-014 5.56597e-015
rhumerus 15.3359 25.8649 -81.784
rradius 116.708
rwrist -20.7188
rhand -37.6084 26.9707
rfingers 7.12502
rthumb -10.6615 -2.73878
lclavicle 2.0276e-014 5.56597e-015
lhumerus 12.2027 -10.272 88.6662
lradius 127.845
lwrist 14.9482
lhand -44.9682 -14.8747
lfingers 7.12502
lthumb -17.753 14.3349
rfemur -5.28447 22.3438 19.5582
rtibia 19.5187
rfoot -34.2073 -34.9637
rtoes -4.73178
lfemur -5.56788 -20.7256 -16.5907
ltibia 19.618
lfoot -21.79 30.9019
ltoes -7.21249
569
root 8.2671 15.5515 4.03121 181.117 6.4595 -179.751
lowerback 10.0458 1.32135 -2.28416
upperback 4.00759 1.90988 -1.77927
thorax -1.46972 1.11939 -0.77217
lowerneck -3.81623 7.61287 12.8931
upperneck -3.72083 9.72254 -10.3554
head 0.662306 4.81265 -4.9265
rclavicle -9.14409e-015 5.56597e-015
rhumerus 14.9486 29.7738 -82.9239
rradius 115.349
rwrist -21.5974
rhand -35.3685 24.2041
rfingers 7.12502
rthumb -8.50038 -5.60482
lclavicle -9.14409e-015 5.56597e-015
lhumerus 11.2105 -14.9156 89.2274
lradius 126.653
lwrist 14.7542
lhand -42.8749 -12.5799
lfingers 7.12502
lthumb -15.7379 16.8003
rfemur -4.87681 22.4244 19.6449
rtibia 19.7599
rfoot -34.4557 -34.8357
rtoes -4.94962
lfemur -4.84101 -21.2048 -16.9649
ltibia 19.4118
lfoot -22.4463 31.2111
ltoes -6.04437
570
root 8.2819 15.5424 4.00983 180.775 6.57897 -179.886
lowerback 9.70838 1.35335 -2.30106
upperback 3.92941 1.94463 -1.80108
thorax -1.36613 1.12973 -0.77958
lowerneck -4.10264 7.68811 12.8167
upperneck -2.91938 9.80111 -10.1474
head 0.937882 4.8375 -4.81633
rclavicle -6.16232e-015 2.94201e-014
rhumerus 14.6434 33.5129 -83.9079
rradius 113.963
rwrist -22.575
rhand -31.7191 21.3735
rfingers 7.12502
rthumb -4.97747 -8.54807
lclavicle -6.16232e-015 2.94201e-014
lhumerus 10.3601 -19.54 89.5847
lradius 125.287
lwrist 14.7647
lhand -40.0734 -10.3499
lfingers 7.12502
lthumb -13.0386 19.2226
rfemur -4.51969 22.4 19.7155
rtibia 19.9928
rfoot -34.5965 -34.6375
rtoes -5.24315
lfemur -4.18012 -21.5449 -17.2987
ltibia 19.2257
lfoot -22.9253 31.454
ltoes -5.28655
571
root 8.29664 15.5346 3.99024 180.471 6.6781 -179.969
lowerback 9.38074 1.37395 -2.25154
upperback 3.87113 1.97292 -1.82914
thorax -1.24474 1.13838 -0.829613
lowerneck -4.40662 7.74415 12.7489
upperneck -2.19097 9.85276 -9.91793
head 1.19101 4.85131 -4.70434
rclavicle -3.63776e-014 1.74931e-014
rhumerus 14.2683 36.5722 -84.9272
rradius 112.755
rwrist -23.6768
rhand -25.7216 18.0699
rfingers 7.12502
rthumb 0.814594 -11.9083
lclavicle -3.63776e-014 1.74931e-014
lhumerus 9.66279 -23.6221 89.792
lradius 123.984
lwrist 15.0908
lhand -37.0515 -7.70853
lfingers 7.12502
lthumb -10.1243 22.0279
rfemur -4.17985 22.3237 19.8201
rtibia 20.1676
rfoot -34.7017 -34.4092
rtoes -5.43819
lfemur -3.61898 -21.7144 -17.5385
ltibia 19.0959
lfoot -23.1755 31.6192
ltoes -5.01698
572
root 8.31122 15.5283 3.97299 180.202 6.74085 -179.96
lowerback 9.05961 1.37264 -2.07233
upperback 3.84565 1.98659 -1.86743
thorax -1.08838 1.1422 -0.960642
lowerneck -4.70634 7.78753 12.7226
upperneck -1.57041 9.88532 -9.701
head 1.41238 4.85813 -4.60692
rclavicle 9.14409e-015 -2.38542e-015
rhumerus 13.6925 38.5922 -86.1281
rradius 111.872
rwrist -24.7108
rhand -18.3558 14.678
rfingers 7.12502
rthumb 7.92698 -15.1534
lclavicle 9.14409e-015 -2.38542e-015
lhumerus 9.1154 -26.7537 89.8829
lradius 122.952
lwrist 15.6257
lhand -33.8143 -5.09096
lfingers 7.12502
lthumb -7.00029 24.7733
rfemur -3.82973 22.2585 20.0152
rtibia 20.26
rfoot -34.8447 -34.2064
rtoes -5.40789
lfemur -3.16819 -21.7192 -17.6381
ltibia 19.0405
lfoot -23.2067 31.6997
ltoes -5.16359
573
root 8.32575 15.5232 3.9583 179.955 6.76257 -179.882
lowerback 8.78492 1.36229 -1.88688
upperback 3.83235 1.98714 -1.84573
thorax -0.946664 1.13927 -1.03322
lowerneck -4.86709 7.80536 12.7637
upperneck -1.15959 9.89552 -9.67046
head 1.5613 4.85713 -4.58798
rclavicle -4.07509e-015 1.74931e-014
rhumerus 12.7666 39.3701 -87.4854
rradius 111.44
rwrist -25.4314
rhand -10.6659 11.7874
rfingers 7.12502
rthumb 15.3423 -17.6234
lclavicle -4.07509e-015 1.74931e-014
lhumerus 8.6085 -28.6212 90.0499
lradius 122.355
lwrist 16.1121
lhand -30.3047 -2.79273
lfingers 7.12502
lthumb -3.61168 27.1564
rfemur -3.45827 22.2363 20.2849
rtibia 20.2751
rfoot -35.057 -34.054
rtoes -5.10553
lfemur -2.81615 -21.5844 -17.6277
ltibia 19.0567
lfoot -23.0516 31.7019
ltoes -5.64243
574
root 8.34023 15.5186 3.94614 179.721 6.76026 -179.788
lowerback 8.54904 1.34311 -1.72387
upperback 3.83536 1.97432 -1.79483
thorax -0.811038 1.1301 -1.06293
lowerneck -4.9738 7.82389 12.7912
upperneck -0.850996 9.91339 -9.68908
head 1.67441 4.86156 -4.58582
rclavicle 1.04362e-014 7.15625e-015
rhumerus 11.54 38.8977 -88.9079
rradius 111.486
rwrist -25.706
rhand -4.58495 10.1611
rfingers 7.12502
rthumb 21.1921 -18.7005
lclavicle 1.04362e-014 7.15625e-015
lhumerus 8.11441 -29.2049 90.2688
lradius 122.228
lwrist 16.3803
lhand -27.4488 -1.1448
lfingers 7.12502
lthumb -0.853575 28.8332
rfemur -3.07954 22.2727 20.5771
rtibia 20.2446
rfoot -35.3092 -33.9714
rtoes -4.66355
lfemur -2.53055 -21.3705 -17.5744
ltibia 19.1168
lfoot -22.8168 31.6448
ltoes -6.21438
575
root 8.35442 15.5143 3.93625 179.495 6.75855 -179.715
lowerback 8.36731 1.32277 -1.65045
upperback 3.83515 1.95108 -1.70532
thorax -0.712588 1.11471 -1.00377
lowerneck -5.06992 7.85693 12.7523
upperneck -0.551109 9.95656 -9.70467
head 1.78275 4.87911 -4.5716
rclavicle 9.74045e-015 0
rhumerus 10.1772 37.4453 -90.1387
rradius 111.912
rwrist -25.6685
rhand -1.77692 10.2113
rfingers 7.12502
rthumb 23.8873 -18.3231
lclavicle 9.74045e-015 0
lhumerus 7.61463 -28.6629 90.5278
lradius 122.482
lwrist 16.4082
lhand -25.7048 -0.434029
lfingers 7.12502
lthumb 0.830829 29.5441
rfemur -2.72375 22.3474 20.8442
rtibia 20.2165
rfoot -35.5473 -33.9484
rtoes -4.25842
lfemur -2.271 -21.1357 -17.5326
ltibia 19.1759
lfoot -22.5931 31.5565
ltoes -6.68688
576
root 8.36804 15.5104 3.92804 179.278 6.7767 -179.695
lowerback 8.23622 1.30918 -1.68393
upperback 3.81905 1.92643 -1.59507
thorax -0.662207 1.09725 -0.865424
lowerneck -5.18799 7.90678 12.6491
upperneck -0.196817 10.0255 -9.68939
head 1.90877 4.90915 -4.53452
rclavicle 8.84592e-015 -2.3059e-014
rhumerus 8.88224 35.3731 -90.9608
rradius 112.52
rwrist -25.2889
rhand -3.16629 11.951
rfingers 7.12502
rthumb 22.5544 -16.7516
lclavicle 8.84592e-015 -2.3059e-014
lhumerus 7.13986 -27.2701 90.761
lradius 122.971
lwrist 16.2875
lhand -25.5837 -0.493721
lfingers 7.12502
lthumb 0.947787 29.4839
rfemur -2.42379 22.4031 21.0391
rtibia 20.2325
rfoot -35.7172 -33.9332
rtoes -4.03701
lfemur -2.00688 -20.9141 -17.543
ltibia 19.1944
lfoot -22.4239 31.4626
ltoes -6.96216
577
root 8.38066 15.5068 3.92098 179.08 6.8324 -179.728
lowerback 8.12814 1.30353 -1.78472
upperback 3.78819 1.90617 -1.49216
thorax -0.641251 1.08133 -0.698507
lowerneck -5.3533 7.97135 12.5001
upperneck 0.231513 10.1135 -9.62118
head 2.06114 4.94808 -4.46975
rclavicle -1.05356e-014 -7.15625e-015
rhumerus 7.80184 33.0562 -91.3034
rradius 113.187
rwrist -24.9125
rhand -8.64569 14.425
rfingers 7.12502
rthumb 17.2875 -14.8261
lclavicle -1.05356e-014 -7.15625e-015
lhumerus 6.72063 -25.4025 90.895
lradius 123.542
lwrist 16.0938
lhand -27.297 -1.254
lfingers 7.12502
lthumb -0.706982 28.7246
rfemur -2.20779 22.4064 21.1481
rtibia 20.3132
rfoot -35.7727 -33.8975
rtoes -4.13607
lfemur -1.72652 -20.7287 -17.6091
ltibia 19.1507
lfoot -22.3302 31.3931
ltoes -7.03957
